HIERARCHY
ROOT Hips
{
	OFFSET 0.000000 0.000000 0.000000
	CHANNELS 6 Xposition Yposition Zposition Zrotation Yrotation Xrotation 
	JOINT LHipJoint
	{
		OFFSET 0.000000 0.000000 0.000000
		CHANNELS 3 Zrotation Yrotation Xrotation
		JOINT LeftUpLeg
		{
			OFFSET 1.363060 -1.794630 0.839290
			CHANNELS 3 Zrotation Yrotation Xrotation
			JOINT LeftLeg
			{
				OFFSET 2.448110 -6.726130 0.000000
				CHANNELS 3 Zrotation Yrotation Xrotation
				JOINT LeftFoot
				{
					OFFSET 2.562200 -7.039590 0.000000
					CHANNELS 3 Zrotation Yrotation Xrotation
					JOINT LeftToeBase
					{
						OFFSET 0.157640 -0.433110 2.322550
						CHANNELS 3 Zrotation Yrotation Xrotation
						End Site
						{
							OFFSET 0.000000 0.000000 0.000000
						}
					}
				}
			}
		}
	}
	JOINT RHipJoint
	{
		OFFSET 0.000000 0.000000 0.000000
		CHANNELS 3 Zrotation Yrotation Xrotation
		JOINT RightUpLeg
		{
			OFFSET -1.305520 -1.794630 0.839290
			CHANNELS 3 Zrotation Yrotation Xrotation
			JOINT RightLeg
			{
				OFFSET -2.542530 -6.985550 0.000000
				CHANNELS 3 Zrotation Yrotation Xrotation
				JOINT RightFoot
				{
					OFFSET -2.568260 -7.056230 0.000000
					CHANNELS 3 Zrotation Yrotation Xrotation
					JOINT RightToeBase
					{
						OFFSET -0.164730 -0.452590 2.363150
						CHANNELS 3 Zrotation Yrotation Xrotation
						End Site
						{
							OFFSET 0.000000 0.000000 0.000000
						}
					}
				}
			}
		}
	}
	JOINT LowerBack
	{
		OFFSET 0.000000 0.000000 0.000000
		CHANNELS 3 Zrotation Yrotation Xrotation
		JOINT Spine
		{
			OFFSET 0.028270 2.035590 -0.193380
			CHANNELS 3 Zrotation Yrotation Xrotation
			JOINT Spine1
			{
				OFFSET 0.056720 2.048850 -0.042750
				CHANNELS 3 Zrotation Yrotation Xrotation
				JOINT Neck
				{
					OFFSET 0.000000 0.000000 0.000000
					CHANNELS 3 Zrotation Yrotation Xrotation
					JOINT Neck1
					{
						OFFSET -0.054170 1.746240 0.172020
						CHANNELS 3 Zrotation Yrotation Xrotation
						JOINT Head
						{
							OFFSET 0.104070 1.761360 -0.123970
							CHANNELS 3 Zrotation Yrotation Xrotation
							End Site
							{
								OFFSET 0.000000 0.000000 0.000000
							}
						}
					}
				}
				JOINT LeftShoulder
				{
					OFFSET 0.000000 0.000000 0.000000
					CHANNELS 3 Zrotation Yrotation Xrotation
					JOINT LeftArm
					{
						OFFSET 3.362410 1.200890 -0.311210
						CHANNELS 3 Zrotation Yrotation Xrotation
						JOINT LeftForeArm
						{
							OFFSET 4.983000 -0.000000 -0.000000
							CHANNELS 3 Zrotation Yrotation Xrotation
							JOINT LeftHand
							{
								OFFSET 3.483560 -0.000000 -0.000000
								CHANNELS 3 Zrotation Yrotation Xrotation
								JOINT LeftFingerBase
								{
									OFFSET 0.000000 0.000000 0.000000
									CHANNELS 3 Zrotation Yrotation Xrotation
									JOINT LeftHandIndex1
									{
										OFFSET 0.715260 -0.000000 -0.000000
										CHANNELS 3 Zrotation Yrotation Xrotation
										End Site
										{
											OFFSET 0.000000 0.000000 0.000000
										}
									}
								}
								JOINT LThumb
								{
									OFFSET 0.000000 0.000000 0.000000
									CHANNELS 3 Zrotation Yrotation Xrotation
									End Site
									{
										OFFSET 0.000000 0.000000 0.000000
									}
								}
							}
						}
					}
				}
				JOINT RightShoulder
				{
					OFFSET 0.000000 0.000000 0.000000
					CHANNELS 3 Zrotation Yrotation Xrotation
					JOINT RightArm
					{
						OFFSET -3.136600 1.374050 -0.404650
						CHANNELS 3 Zrotation Yrotation Xrotation
						JOINT RightForeArm
						{
							OFFSET -5.241900 -0.000000 -0.000000
							CHANNELS 3 Zrotation Yrotation Xrotation
							JOINT RightHand
							{
								OFFSET -3.444170 -0.000000 -0.000000
								CHANNELS 3 Zrotation Yrotation Xrotation
								JOINT RightFingerBase
								{
									OFFSET 0.000000 0.000000 0.000000
									CHANNELS 3 Zrotation Yrotation Xrotation
									JOINT RightHandIndex1
									{
										OFFSET -0.622530 -0.000000 -0.000000
										CHANNELS 3 Zrotation Yrotation Xrotation
										End Site
										{
											OFFSET 0.000000 0.000000 0.000000
										}
									}
								}
								JOINT RThumb
								{
									OFFSET 0.000000 0.000000 0.000000
									CHANNELS 3 Zrotation Yrotation Xrotation
									End Site
									{
										OFFSET 0.000000 0.000000 0.000000
									}
								}
							}
						}
					}
				}
			}
		}
	}
}
MOTION
Frames: 10
Frame Time: 0.008333
-20.824343 17.561793 6.050142 171.193302 84.800906 170.409930 1.929086 -3.271044 -1.786417 -18.422383 -4.468858 1.693459 0.734779 9.074890 22.630371 -1.676269 14.585925 -20.500380 0.011700 -0.699800 -1.923000 -8.873104 2.714413 -6.688371 22.702299 -1.046875 9.175256 -1.054250 -6.254124 15.034402 -0.456314 -15.466043 -25.001430 -0.075500 -1.773100 4.879000 -0.761537 0.871246 -2.094370 0.393921 0.476558 -0.896275 2.794907 0.205691 8.247843 -5.431360 0.596163 -19.386183 3.729208 3.229295 16.419118 0.865900 1.334200 15.510300 -7.469480 -2.077697 -0.941325 -83.020097 -6.032630 21.101497 5.308630 -17.749345 -1.421007 -0.273324 0.149017 -3.923313 21.540486 -10.398535 -4.192400 -7.125000 0.000000 0.000000 -3.709100 18.641500 2.333800 10.493351 3.291020 -0.844551 71.354055 1.698437 15.728113 -9.565439 21.398834 -3.055778 1.304253 -0.100700 -4.195724 -10.574250 -30.678893 6.057800 7.125000 0.000000 0.000000 22.223900 -59.460900 -8.093400 
-20.836567 17.553957 6.064037 174.635366 84.509331 173.925469 1.919639 -3.327055 -1.828058 -17.931191 -4.422025 1.407883 0.772838 9.103843 22.812427 -1.621558 14.221064 -20.197381 0.009800 -0.639600 -1.757800 -8.933555 2.650612 -6.605331 23.461408 -0.100138 9.444217 -1.023169 -6.222639 14.857368 -0.402617 -16.395066 -25.765369 -0.098200 -2.020500 5.562200 -0.681923 0.783245 -2.061375 0.454293 0.347031 -0.912744 2.898347 0.126461 8.182355 -5.409241 0.599920 -19.295432 3.720044 3.204834 16.331897 0.844200 1.327600 15.429000 -7.452566 -2.096278 -0.932967 -83.064187 -6.080360 20.625176 5.167498 -17.543430 -1.390419 -0.265336 0.160188 -3.462648 21.599766 -11.190168 -4.516600 -7.125000 0.000000 0.000000 -3.697900 17.782500 2.396900 10.496322 3.273612 -0.849752 71.436869 1.774347 15.377758 -9.501945 21.308019 -3.049506 1.306083 -0.109729 -3.814713 -10.620551 -30.922629 6.126600 7.125000 0.000000 0.000000 22.363200 -59.693000 -8.272500 
-20.847120 17.552390 6.064037 173.459391 84.604864 172.765269 1.923307 -3.308432 -1.817094 -18.051512 -4.469742 1.400772 0.759192 9.094375 22.746915 -1.617282 14.223746 -20.253524 0.004500 -0.433700 -1.191600 -8.928878 2.672569 -6.613190 23.333871 -0.037983 9.336433 -1.039924 -6.253737 14.970762 -0.413583 -16.314532 -25.737749 -0.089000 -1.924000 5.295600 -0.761414 0.823117 -1.929914 0.436591 0.409206 -0.921920 2.907258 0.165096 8.081845 -5.438639 0.596072 -19.257277 3.706161 3.202855 16.294524 0.840900 1.321400 15.401600 -7.449122 -2.099060 -0.929641 -83.172649 -6.132928 19.895823 5.017362 -17.305704 -1.358273 -0.258713 0.169327 -2.741017 21.672999 -11.697699 -4.733100 -7.125000 0.000000 0.000000 -3.668500 17.228400 2.422300 10.491070 3.285999 -0.850783 71.426640 1.685564 15.676625 -9.633359 21.476221 -3.095303 1.311318 -0.101049 -4.152646 -10.695487 -31.157886 6.210400 7.125000 0.000000 0.000000 22.466900 -59.924700 -8.438600 
-20.852239 17.553539 6.063619 174.678185 84.448221 174.009996 1.925546 -3.326161 -1.828456 -17.937394 -4.565251 1.397225 0.759002 9.074108 22.717815 -1.614703 14.178295 -20.162184 0.002900 -0.347800 -0.955700 -8.933051 2.638969 -6.591244 23.389793 -0.254813 9.174266 -1.039364 -6.296498 15.047022 -0.403130 -16.295262 -25.606823 -0.090000 -1.934700 5.325200 -0.620820 0.811288 -1.885547 0.441489 0.384354 -0.927267 2.842183 0.154166 8.049609 -5.428416 0.588288 -19.271181 3.701071 3.185586 16.274629 0.836000 1.314300 15.396300 -7.440737 -2.106643 -0.926624 -83.298737 -6.102239 19.493042 4.941283 -17.187484 -1.343454 -0.263638 0.172729 -1.845625 22.263968 -11.387412 -4.750600 -7.125000 0.000000 0.000000 -3.238100 17.505400 2.117500 10.485843 3.283059 -0.854424 71.446794 1.654781 15.734288 -9.687341 21.542290 -3.108647 1.310884 -0.105905 -4.299793 -10.882781 -31.040933 6.285700 7.125000 0.000000 0.000000 22.170900 -59.851400 -8.281500 
-20.866762 17.555315 6.063724 173.041839 84.613823 172.336350 1.930260 -3.296377 -1.809274 -18.129540 -4.632731 1.470877 0.738608 9.057143 22.620418 -1.604645 14.216261 -20.381513 0.000000 -0.027100 -0.074500 -8.916464 2.669404 -6.616827 23.111168 -0.503584 8.975679 -1.061329 -6.336765 15.195218 -0.429332 -15.942324 -25.363369 -0.097900 -2.018200 5.556100 -0.741875 0.892650 -1.633268 0.413743 0.508321 -0.936145 2.857897 0.226082 7.880472 -5.443708 0.587618 -19.226267 3.722992 3.178303 16.218627 0.849300 1.312000 15.362600 -7.436339 -2.108314 -0.943223 -83.419632 -5.613949 18.894975 5.135815 -17.463132 -1.401924 -0.246737 0.181151 -0.539880 22.318262 -11.989497 -5.004300 -7.125000 0.000000 0.000000 -3.234600 16.852900 2.161400 10.473195 3.305034 -0.847417 71.472630 1.665979 15.605478 -9.679272 21.513200 -3.097639 1.307467 -0.123939 -4.230779 -11.271288 -30.699320 6.420200 7.125000 0.000000 0.000000 21.485700 -59.607700 -7.884800 
-20.871463 17.554480 6.066858 172.764801 84.512937 172.008635 1.935615 -3.287101 -1.801109 -18.132834 -4.543315 1.437215 0.741770 9.062988 22.637669 -1.548965 13.956937 -20.358940 0.000500 0.150200 0.412800 -8.894862 2.677850 -6.633089 22.978853 -0.838562 8.950775 -1.057550 -6.323100 15.162320 -0.442713 -15.771258 -25.278940 -0.089600 -1.930100 5.312600 -0.827317 0.862703 -1.498827 0.412357 0.479628 -0.936619 2.900973 0.212139 7.804070 -5.469422 0.596131 -19.179747 3.746304 3.196163 16.211953 0.868700 1.319600 15.354400 -7.424959 -2.108695 -0.998065 -83.510152 -4.195011 19.067846 6.371429 -19.266259 -1.754818 -0.223742 0.181037 -0.022828 22.559701 -12.134773 -5.117200 -7.125000 0.000000 0.000000 -3.088000 16.676100 2.075100 10.463207 3.312317 -0.834387 71.507695 1.707100 15.423367 -9.627983 21.439293 -3.079898 1.305910 -0.130583 -4.114322 -11.299678 -30.584620 6.411800 7.125000 0.000000 0.000000 21.366400 -59.504700 -7.785400 
-20.875433 17.555211 6.068321 173.311944 84.464327 172.601726 1.935148 -3.295895 -1.808820 -18.064299 -4.523253 1.331081 0.750875 9.080283 22.693260 -1.575713 14.018580 -20.203400 0.000500 -0.139100 -0.382200 -8.902598 2.664742 -6.631623 22.984258 -1.023940 8.856566 -1.048205 -6.301349 15.076437 -0.433164 -15.709744 -25.091392 -0.082300 -1.850100 5.091500 -0.766941 0.867175 -1.522664 0.404696 0.486047 -0.917328 2.844079 0.211317 7.879652 -5.465950 0.570840 -19.274999 3.771398 3.166523 16.221041 0.883000 1.308700 15.383200 -7.425916 -2.100858 -1.000331 -83.494330 -4.235551 18.823333 6.530698 -19.475733 -1.803471 -0.228314 0.174812 0.150534 22.493322 -11.341745 -4.776700 -7.125000 0.000000 0.000000 -3.095900 17.541100 2.021900 10.451830 3.306982 -0.825864 71.607583 1.966810 14.944029 -9.447122 21.211168 -3.031909 1.306110 -0.132031 -3.767529 -10.894890 -30.667258 6.219000 7.125000 0.000000 0.000000 21.859200 -59.499300 -7.972800 
-20.882851 17.555942 6.071769 176.538500 84.296482 175.914765 1.928897 -3.349472 -1.848161 -17.710693 -4.735845 1.246018 0.773524 9.087616 22.797693 -1.595117 14.073445 -20.126091 0.000900 -0.195600 -0.537500 -8.949152 2.595044 -6.571782 23.465325 -0.749078 8.857303 -1.023129 -6.282473 14.926212 -0.404965 -16.020725 -25.270201 -0.099500 -2.034300 5.600400 -0.459834 0.838493 -1.558091 0.437584 0.424352 -0.905437 2.771941 0.169570 7.943674 -5.515612 0.544593 -19.376543 3.822358 3.150624 16.193832 0.927000 1.297700 15.388400 -7.422613 -2.104418 -0.997214 -83.511482 -4.318410 18.567254 6.562228 -19.501349 -1.814770 -0.222092 0.177703 0.102338 22.319376 -11.730689 -4.893000 -7.125000 0.000000 0.000000 -3.238200 17.137100 2.143700 10.450724 3.292390 -0.822208 71.624823 2.172447 14.764698 -9.341485 21.079934 -3.000075 1.306240 -0.130748 -3.631783 -10.630697 -30.626264 6.075700 7.125000 0.000000 0.000000 22.107500 -59.409100 -8.020800 
-20.883165 17.555524 6.074381 176.682173 84.088675 176.011972 1.934980 -3.351477 -1.847218 -17.692442 -4.863773 1.244876 0.787399 9.118111 22.896684 -1.582842 14.002268 -20.083807 0.000100 -0.054600 -0.150000 -8.932905 2.605436 -6.585726 23.518569 -0.730794 9.108321 -1.001287 -6.213701 14.739769 -0.385454 -16.291193 -25.453227 -0.103800 -2.077600 5.720200 -0.481068 0.792220 -1.496642 0.433082 0.371679 -0.885619 2.759528 0.139531 7.979448 -5.515981 0.550075 -19.407400 3.848609 3.156363 16.172724 0.943800 1.302400 15.379200 -7.428709 -2.101552 -0.996333 -83.495188 -4.279578 18.502104 6.615929 -19.573417 -1.830800 -0.220283 0.175854 -0.177275 22.098155 -11.818809 -4.874200 -7.125000 0.000000 0.000000 -3.398000 17.065000 2.255200 10.451178 3.291585 -0.819088 71.608358 2.155988 14.979509 -9.400172 21.154514 -3.007115 1.304768 -0.126751 -3.839782 -10.565361 -30.443232 6.008000 7.125000 0.000000 0.000000 22.036800 -59.226900 -7.896600 
-20.883687 17.559599 6.073649 176.238199 84.108624 175.630273 1.934089 -3.348289 -1.843180 -17.727830 -4.830024 1.096377 0.795389 9.152568 22.975269 -1.591264 14.037647 -20.080175 0.000400 -0.134800 -0.370400 -8.932985 2.613885 -6.604145 23.386823 -0.948342 9.036228 -0.990308 -6.156104 14.581613 -0.367449 -16.257872 -25.175913 -0.092300 -1.959300 5.393100 -0.491098 0.828132 -1.561616 0.404799 0.425468 -0.868228 2.680691 0.169148 8.054752 -5.448560 0.568250 -19.451703 3.850052 3.152244 16.144615 0.932200 1.308300 15.367700 -7.437909 -2.097128 -0.994374 -83.412663 -4.243925 18.425425 6.643837 -19.608034 -1.837494 -0.221263 0.169366 -0.139230 21.758367 -11.522353 -4.673700 -7.125000 0.000000 0.000000 -3.622500 17.420900 2.376600 10.448166 3.287066 -0.815999 71.649074 2.155257 15.139218 -9.471286 21.251158 -3.029375 1.306463 -0.123798 -4.026456 -10.546488 -30.507347 6.010100 7.125000 0.000000 0.000000 22.103300 -59.280400 -7.950400 
